<svg xmlns="http://www.w3.org/2000/svg" width="116.369" height="50.001" viewBox="0 0 116.369 50.001">
  <g id="Group_1" data-name="Group 1" transform="translate(-401 -285)">
    <text id="Get" transform="translate(401 319.246)" fill="#fff" font-size="30" font-family="SegoeUI, Segoe UI"><tspan x="0" y="0">Get</tspan></text>
    <rect id="Rectangle_2" data-name="Rectangle 2" width="2.192" height="9.531" transform="translate(412.178 325.467)" fill="#fff"/>
    <rect id="Rectangle_3" data-name="Rectangle 3" width="2.192" height="9.531" transform="translate(412.616 285)" fill="#fff"/>
    <rect id="Rectangle_4" data-name="Rectangle 4" width="2.191" height="49.094" transform="translate(463.573 285) rotate(90)" fill="#fff"/>
    <rect id="Rectangle_5" data-name="Rectangle 5" width="2.191" height="49.203" transform="translate(463.573 332.808) rotate(90)" fill="#fff"/>
    <path id="Subtraction_1" data-name="Subtraction 1" d="M51.176,50H0V0H51.176V50ZM33.535,29.109h0l4.03,5.305h5.828l-6.467-7.859L43.1,18.987h-5.51l-3.77,4.988-3.712-4.988H24.284l6.206,7.569-6.5,7.859H29.5l4.03-5.305ZM5.9,14.116v20.3H23.24V30.3H10.885V25.861h10.9V22.09h-10.9V18.233H22.95V14.116Z" transform="translate(466.193 285)" fill="#fff"/>
  </g>
</svg>
