<svg xmlns="http://www.w3.org/2000/svg" xmlns:xlink="http://www.w3.org/1999/xlink" width="16" height="16" viewBox="0 0 16 16"><defs><clipPath id="a"><rect width="16" height="16" transform="translate(614 3022)" fill="#838e99"/></clipPath></defs><g transform="translate(-614 -3022)" clip-path="url(#a)"><g transform="translate(614 3022)"><path d="M7.667,1.333a5.667,5.667,0,1,0,0,11.333H8v2C11.24,13.107,13.333,10,13.333,7A5.67,5.67,0,0,0,7.667,1.333ZM8.333,11H7V9.667H8.333Zm0-2.333H7c0-2.167,2-2,2-3.333a1.333,1.333,0,1,0-2.667,0H5a2.667,2.667,0,0,1,5.333,0C10.333,7,8.333,7.167,8.333,8.667Z" fill="#838e99"/><path d="M0,0H16V16H0Z" fill="none"/></g></g></svg>